<?xml version="1.0" standalone="no"?><!DOCTYPE svg PUBLIC "-//W3C//DTD SVG 1.1//EN" "http://www.w3.org/Graphics/SVG/1.1/DTD/svg11.dtd"><svg t="1586064077230" class="icon" viewBox="0 0 1024 1024" version="1.1" xmlns="http://www.w3.org/2000/svg" p-id="2171" xmlns:xlink="http://www.w3.org/1999/xlink" width="16" height="16"><defs><style type="text/css"></style></defs><path d="M583.559529 50.416941a150.588235 150.588235 0 0 1 150.226824 140.709647l0.361412 9.878588v49.152h210.823529a30.117647 30.117647 0 0 1 5.421177 59.813648l-5.421177 0.481882h-90.352941v553.140706a150.588235 150.588235 0 0 1-140.709647 150.287059l-9.878588 0.301176h-421.647059a150.588235 150.588235 0 0 1-150.287059-140.709647l-0.301176-9.878588V310.392471h-90.352942a30.117647 30.117647 0 0 1-5.421176-59.693177l5.421176-0.481882h210.82353v-49.212236A150.588235 150.588235 0 0 1 392.914824 50.718118l9.938823-0.301177h180.705882z m210.82353 259.97553h-602.352941v553.200941a90.352941 90.352941 0 0 0 81.618823 89.931294l8.734118 0.421647h421.647059a90.352941 90.352941 0 0 0 89.931294-81.618824l0.421647-8.734117V310.392471z m-418.635294 195.764705a30.117647 30.117647 0 0 1 30.117647 30.117648l0.12047 248.410352a30.117647 30.117647 0 1 1-60.235294 0l-0.12047-248.410352a30.117647 30.117647 0 0 1 30.117647-30.117648z m234.736941 0a30.117647 30.117647 0 0 1 30.117647 30.117648l0.120471 248.410352a30.117647 30.117647 0 0 1-60.235295 0l-0.060235-248.410352a30.117647 30.117647 0 0 1 30.117647-30.117648z m-26.925177-395.504941h-180.705882a90.352941 90.352941 0 0 0-89.931294 81.679059l-0.421647 8.673882v49.152h361.411765v-49.152a90.352941 90.352941 0 0 0-81.679059-89.931294l-8.673883-0.421647z" p-id="2172"></path></svg>